<svg xmlns="http://www.w3.org/2000/svg" width="512" height="512" viewBox="0 0 512 512">
  <defs>
    <linearGradient id="bg" x1="0" y1="0" x2="1" y2="1">
      <stop offset="0" stop-color="#091522"/>
      <stop offset="1" stop-color="#020407"/>
    </linearGradient>
    <linearGradient id="cloak" x1="0" y1="0" x2="0.8" y2="1">
      <stop offset="0" stop-color="#294a61"/>
      <stop offset="0.38" stop-color="#112536"/>
      <stop offset="1" stop-color="#05090f"/>
    </linearGradient>
    <filter id="glow" x="-80%" y="-80%" width="260%" height="260%">
      <feGaussianBlur stdDeviation="9" result="blur"/>
      <feMerge><feMergeNode in="blur"/><feMergeNode in="SourceGraphic"/></feMerge>
    </filter>
  </defs>
  <rect width="512" height="512" rx="112" fill="url(#bg)"/>
  <path d="M256 58L299 92 350 107 386 148 413 204 400 265 421 386 355 348 317 402 256 367 195 402 157 348 91 386 112 265 99 204 126 148 162 107 213 92z" fill="url(#cloak)" stroke="#4eafd9" stroke-width="6" stroke-linejoin="round"/>
  <path d="M256 103L311 119 353 149 378 204 364 256 337 295 302 314 256 323 210 314 175 295 148 256 134 204 159 149 201 119z" fill="#03070d" stroke="#193e56" stroke-width="5" stroke-linejoin="round"/>
  <path d="M165 205L236 184 256 204 224 230 178 225zM347 205L276 184 256 204 288 230 334 225z" fill="#040a11" stroke="#347fa6" stroke-width="4" stroke-linejoin="round"/>
  <path d="M181 211L229 196 214 215 183 220zM331 211L283 196 298 215 329 220z" fill="#76e4ff" filter="url(#glow)"/>
  <path d="M162 325L195 309M350 325L317 309" stroke="#55bde9" stroke-width="5" stroke-linecap="round"/>
</svg>
